<svg width="30" height="28" viewBox="0 0 30 28" fill="none" xmlns="http://www.w3.org/2000/svg">
<path d="M1.2375 0C0.551719 0 0 0.551719 0 1.2375C0 1.92328 0.551719 2.475 1.2375 2.475H3.57328C3.77437 2.475 3.94453 2.61937 3.98062 2.81531L6.66703 17.5777C6.98672 19.3411 8.52328 20.625 10.3177 20.625H23.5125C24.1983 20.625 24.75 20.0733 24.75 19.3875C24.75 18.7017 24.1983 18.15 23.5125 18.15H10.3177C9.71953 18.15 9.20906 17.722 9.10078 17.1342L8.83781 15.675H24.4922C26.0803 15.675 27.4416 14.5458 27.7355 12.9834L29.3339 4.42922C29.5247 3.41344 28.7461 2.475 27.7097 2.475H6.42984L6.40922 2.37188C6.16172 1.00031 4.96547 0 3.56812 0H1.2375ZM10.725 27.225C12.0914 27.225 13.2 26.1164 13.2 24.75C13.2 23.3836 12.0914 22.275 10.725 22.275C9.35859 22.275 8.25 23.3836 8.25 24.75C8.25 26.1164 9.35859 27.225 10.725 27.225ZM22.275 27.225C23.6414 27.225 24.75 26.1164 24.75 24.75C24.75 23.3836 23.6414 22.275 22.275 22.275C20.9086 22.275 19.8 23.3836 19.8 24.75C19.8 26.1164 20.9086 27.225 22.275 27.225Z" fill="white"/>
</svg>
